<svg xmlns="http://www.w3.org/2000/svg" viewBox="0 0 120 140" role="img" aria-label="Carte RDC et drapeau">
  <!-- Contour RDC (style document officiel) -->
  <path fill="none" stroke="#1a2b3c" stroke-width="1.2" stroke-linejoin="round"
    d="M22 10c10-2 22-1 32 3 8 3 14 9 18 17 3 7 4 15 3 24-1 9-5 18-11 26-5 7-11 14-18 20-3 3-6 6-9 9-3-3-6-6-9-9-7-6-13-13-18-20-6-8-10-17-11-26-1-9 0-17 3-24 4-8 10-14 18-17 10-4 22-5 32-3z"/>
  <path fill="none" stroke="#888" stroke-width="0.6" opacity="0.55"
    d="M38 28c6 4 12 8 16 14M52 22c-2 8-2 16 0 24M68 32c4 6 8 12 10 20M44 52c8 2 16 2 24 0M36 72c6 6 12 10 20 12"/>
  <!-- Drapeau RDC -->
  <g transform="translate(34,46)">
    <rect width="52" height="34" fill="#007fff" stroke="#1a2b3c" stroke-width="0.9" rx="1"/>
    <polygon points="0,0 26,17 0,34" fill="#f7d618"/>
    <polygon points="0,0 26,17 52,0" fill="#ce1021"/>
    <polygon points="0,34 26,17 52,34" fill="#007fff"/>
    <polygon points="52,0 26,17 52,34" fill="#007fff"/>
    <polygon points="0,0 0,34 26,17" fill="#f7d618"/>
  </g>
</svg>
